# xmcd CD database file
# Copyright (C) 1996 Ti Kan
#
# Track frame offsets:
# 	150
# 	17277
# 	31322
# 	47377
# 	64355
# 	77140
# 	92842
# 	106462
# 	122597
# 	136727
# 	157680
# 	176462
# 	193780
# 	209220
# 	227792
# 	240167
# 	255000
# 	274695
# 	293245
# 	305782
# 	321265
#
# Disc length: 4486 seconds
#
# Revision: 1
# Processed by: cddbd v1.4b41PL1 Copyright (c) Steve Scherf et al.
# Submitted via: DiscPlay 3.4.1
#
DISCID=17118415
DTITLE=Milan Pecovnik -  Pidzi - Najino slovo
DYEAR=1900
DGENRE=
TTITLE0=Najino slovo
TTITLE1=Rad te imam
TTITLE2=Moje dekle je se mlada
TTITLE3=V Smihel' eno kajzico imam
TTITLE4=Jaz sem si pa nekaj izmislil
TTITLE5=Moj crni konj
TTITLE6=Moj ocka ima konjicka dva
TTITLE7=Zvedel sem nekaj novega
TTITLE8=Je pa davi slanca padla
TTITLE9=Fant s kitaro
TTITLE10=Adijo,  pa zdrava ostani
TTITLE11=Ropar Willy
TTITLE12=Country mesto Maribor
TTITLE13=Greva v hribe
TTITLE14=Jessy James
TTITLE15=Tam dol' na ravnem polju
TTITLE16=Vrtec ogradila bodem
TTITLE17=Za svojo duso
TTITLE18=Oj lepo je res na dezeli
TTITLE19=Zasnubil sem jo
TTITLE20=Sam na poti
EXTD=
EXTT0=
EXTT1=
EXTT2=
EXTT3=
EXTT4=
EXTT5=
EXTT6=
EXTT7=
EXTT8=
EXTT9=Me and Boby Mc Gee
EXTT10=
EXTT11=
EXTT12=
EXTT13=
EXTT14=
EXTT15=
EXTT16=
EXTT17=
EXTT18=
EXTT19=Vsakdanja
EXTT20=
PLAYORDER=
